<?xml version="1.0" standalone="no"?>
<!DOCTYPE svg PUBLIC "-//W3C//DTD SVG 20010904//EN"
 "http://www.w3.org/TR/2001/REC-SVG-20010904/DTD/svg10.dtd">
<svg version="1.0" xmlns="http://www.w3.org/2000/svg"
 width="512.000000pt" height="512.000000pt" viewBox="0 0 512.000000 512.000000"
 preserveAspectRatio="xMidYMid meet">
<metadata>
Created by potrace 1.14, written by Peter Selinger 2001-2017
</metadata>
<g transform="translate(0.000000,512.000000) scale(0.100000,-0.100000)"
fill="#000000" stroke="none">
<path d="M1942 4940 c-12 -11 -22 -27 -22 -36 0 -16 43 -183 121 -474 11 -41
29 -106 39 -145 10 -38 26 -97 35 -130 9 -33 19 -71 22 -85 11 -62 46 -110 78
-110 27 0 55 29 55 57 0 21 -28 132 -75 303 -15 52 -30 111 -35 130 -4 19 -15
62 -25 95 -42 155 -58 213 -65 245 -23 93 -30 115 -48 139 -25 33 -52 37 -80
11z"/>
<path d="M1055 4398 c-27 -15 -35 -28 -35 -58 0 -20 71 -96 338 -363 186 -185
346 -337 356 -337 22 0 66 44 66 67 0 18 -677 703 -695 703 -6 0 -19 -6 -30
-12z"/>
<path d="M2224 3895 c-44 -19 -64 -55 -64 -114 0 -42 5 -54 30 -79 95 -96 243
0 197 128 -14 40 -68 80 -106 79 -14 0 -40 -7 -57 -14z"/>
<path d="M3530 3859 c-41 -27 -76 -53 -78 -58 -2 -6 21 -21 50 -35 249 -119
443 -313 536 -536 104 -252 59 -557 -107 -719 -42 -40 -134 -101 -154 -101 -7
0 -17 -4 -23 -8 -11 -10 -145 -35 -163 -30 -13 3 -41 -68 -41 -105 0 -10 -12
-43 -26 -74 -22 -45 -37 -62 -88 -94 -92 -58 -204 -95 -315 -104 l-95 -7 -45
-47 c-25 -26 -77 -63 -116 -82 -64 -32 -73 -40 -101 -96 -18 -33 -42 -89 -54
-124 -32 -92 -45 -113 -87 -148 -35 -29 -43 -31 -120 -31 -76 0 -100 5 -160
33 -38 17 -55 70 -52 156 l4 76 -80 6 c-100 8 -176 29 -255 70 -53 28 -160
131 -183 175 -23 46 -47 116 -47 141 0 15 -15 32 -44 52 -73 51 -130 127 -167
226 -21 58 -39 136 -39 175 0 21 -4 41 -8 44 -7 4 -172 -90 -192 -110 -9 -9 8
-102 33 -174 16 -48 113 -237 172 -335 94 -156 301 -568 343 -680 51 -139 39
-342 -33 -550 -20 -59 -106 -276 -134 -337 -71 -160 -77 -203 -36 -243 l24
-25 859 0 c829 0 861 1 883 19 21 17 24 30 30 118 8 116 36 192 81 225 38 27
157 48 278 48 127 1 270 27 331 61 34 19 112 99 127 129 36 75 43 116 41 258
l-1 143 35 36 c41 41 52 77 39 126 -9 32 -7 37 24 67 48 45 50 65 14 142 -44
97 -48 123 -19 141 13 8 53 20 89 27 99 20 166 63 191 122 16 39 -1 90 -58
181 -24 37 -43 71 -43 76 0 5 -3 11 -8 13 -4 2 -25 28 -47 58 -22 30 -45 61
-52 68 -26 27 -120 169 -133 200 -13 32 -12 51 6 347 7 99 -7 281 -28 380 -61
292 -204 493 -475 668 -70 45 -174 97 -191 96 -9 0 -51 -23 -92 -50z"/>
<path d="M3280 3693 c-57 -22 -69 -96 -24 -138 33 -30 67 -32 105 -4 24 17 29
27 29 63 0 29 -6 48 -18 59 -20 19 -69 29 -92 20z"/>
<path d="M1833 3640 c-31 -13 -63 -68 -63 -108 0 -67 56 -122 122 -122 94 1
149 105 98 188 -29 48 -97 66 -157 42z"/>
<path d="M3102 3500 c-74 -4 -85 -8 -102 -30 -11 -14 -20 -34 -20 -46 0 -31
43 -72 81 -78 19 -4 150 -5 292 -4 l259 3 24 30 c30 37 30 62 1 97 l-22 27
-215 3 c-118 2 -252 1 -298 -2z"/>
<path d="M481 3479 c-24 -26 -25 -30 -10 -62 11 -24 21 -28 129 -57 25 -7 65
-18 90 -25 25 -7 63 -17 85 -23 22 -6 58 -15 80 -21 59 -16 276 -75 386 -104
150 -41 173 -43 198 -18 12 12 21 29 21 39 -1 42 -31 58 -170 92 -19 4 -62 15
-95 25 -161 44 -213 58 -245 65 -19 4 -78 20 -130 35 -52 14 -111 30 -130 35
-19 5 -53 14 -75 20 -81 24 -111 24 -134 -1z"/>
<path d="M2229 3461 c-21 -17 -23 -27 -26 -132 -2 -63 -3 -117 -3 -120 0 -4
-52 -8 -115 -10 -102 -4 -117 -6 -137 -26 -29 -29 -28 -87 1 -117 19 -18 36
-22 136 -26 l115 -5 3 -118 c2 -111 4 -120 26 -138 30 -24 82 -24 112 0 22 18
24 27 27 140 l4 121 104 0 c140 0 164 12 164 79 0 75 -17 85 -156 90 l-114 3
0 113 c0 108 -1 113 -26 139 -32 31 -81 35 -115 7z"/>
<path d="M3280 3303 c-57 -21 -69 -94 -23 -138 34 -30 65 -32 104 -4 24 17 29
27 29 64 0 35 -5 48 -26 64 -26 21 -54 25 -84 14z"/>
<path d="M1603 3263 c-32 -6 -79 -56 -86 -91 -16 -81 39 -146 125 -146 41 0
54 5 79 30 25 25 30 39 31 81 2 64 -25 105 -80 121 -22 7 -41 11 -43 11 -2 -1
-14 -4 -26 -6z"/>
<path d="M3119 2735 c-40 -22 -54 -65 -34 -104 9 -18 28 -36 42 -42 16 -6 140
-9 316 -7 l289 3 25 29 c31 37 26 81 -15 113 -27 23 -31 23 -312 23 -227 -1
-290 -4 -311 -15z"/>
<path d="M2176 2444 c-31 -31 -18 -55 91 -165 l107 -109 -107 -109 c-116 -117
-129 -144 -82 -175 13 -9 31 -16 38 -16 8 0 61 47 118 105 57 58 108 105 113
105 6 0 58 -47 116 -105 110 -108 133 -120 163 -87 34 38 22 62 -83 167 -55
55 -100 106 -100 115 0 8 45 60 100 115 75 75 100 105 100 125 0 34 -17 50
-55 50 -25 0 -47 -17 -130 -100 -55 -55 -104 -100 -110 -100 -6 0 -55 45 -110
100 -104 105 -134 120 -169 84z"/>
</g>
</svg>
